<svg xmlns="http://www.w3.org/2000/svg" width="512" height="512" viewBox="0 0 512 512" version="1.1">
	<path d="M 38 256 L 38 474 256 474 L 474 474 474 256 L 474 38 256 38 L 38 38 38 256 M 221.096 127.265 C 219.774 127.944, 217.878 129.625, 216.881 131 C 214.095 134.846, 170 257.806, 170 261.731 C 170 266.806, 174.520 271, 179.989 271 C 185.105 271, 187.570 269.743, 189.366 266.220 C 190.128 264.724, 200.092 237.726, 211.507 206.224 C 228.486 159.367, 232.556 149.034, 233.881 149.417 C 234.771 149.674, 265.425 155.827, 302 163.090 C 338.575 170.353, 368.836 176.588, 369.247 176.945 C 370.665 178.177, 349.490 242.431, 332.813 287.500 C 313.784 338.927, 300.706 356.254, 276.179 362.534 C 266.243 365.078, 257.944 362.838, 251.362 355.838 C 245.513 349.617, 243.048 342.384, 242.106 328.682 L 241.500 319.864 181.006 295.432 C 147.734 281.994, 120.236 271, 119.898 271 C 119.560 271, 118.724 275.097, 118.040 280.104 C 115.005 302.312, 122.669 322.138, 138.477 332.974 C 144.416 337.045, 243.447 381.551, 250.789 383.449 C 265.918 387.360, 282.295 385.060, 298.443 376.758 C 307.858 371.917, 320.961 359.562, 327.881 349 C 339.777 330.842, 352.427 298.987, 376.528 226.500 C 395.019 170.887, 395.502 169.138, 393.620 164.633 C 392.821 162.721, 391.117 160.504, 389.834 159.707 C 387.967 158.548, 228.033 125.961, 224.476 126.015 C 223.939 126.023, 222.418 126.585, 221.096 127.265" stroke="none" fill="black" fill-rule="evenodd"/>
</svg>