<svg xmlns="http://www.w3.org/2000/svg" width="600" height="600" viewBox="0 0 600 600" version="1.1">
	<path d="M 0 300.002 L 0 600.003 300.250 599.752 L 600.500 599.500 600.752 299.750 L 601.003 0 300.502 0 L 0 0 0 300.002 M 0.493 300.500 C 0.493 465.500, 0.609 532.851, 0.750 450.169 C 0.891 367.487, 0.891 232.487, 0.750 150.169 C 0.609 67.851, 0.493 135.500, 0.493 300.500 M 251.458 122.880 C 249.235 123.890, 246.694 125.818, 245.811 127.165 C 244.929 128.512, 232.196 162.888, 217.517 203.557 C 202.837 244.226, 188.564 283.730, 185.798 291.345 C 180.474 306.001, 180.131 309.498, 183.509 314.654 C 188.503 322.276, 201.043 323.177, 207.167 316.352 C 208.640 314.711, 219.082 286.456, 256.720 182.266 C 266.446 155.341, 267.447 153.072, 269.390 153.531 C 270.550 153.805, 313.069 162.329, 363.875 172.473 C 414.682 182.617, 456.403 191.070, 456.590 191.256 C 457.536 192.203, 427.163 284.002, 412.504 324.500 C 390.604 385.006, 379.021 408.849, 363.082 426.237 C 346.880 443.912, 319.917 452.384, 303.845 444.849 C 289.444 438.097, 281.336 421.371, 280.733 397.171 L 280.500 387.842 226 365.865 C 180.698 347.596, 117.764 322.162, 113.374 320.347 C 111.413 319.536, 109.499 332.739, 109.512 347 C 109.526 362.492, 111.562 371.568, 117.599 383.057 C 125.282 397.678, 136.102 406.573, 158.075 416.333 C 166.009 419.858, 196.800 433.762, 226.500 447.231 C 256.200 460.701, 283.425 472.655, 287 473.796 C 308.194 480.563, 326.786 479.709, 348.840 470.954 C 378.947 459.002, 401.009 432.950, 420.783 386 C 434.332 353.829, 465.588 264.044, 484.663 202.500 C 491.524 180.362, 491.984 176.676, 488.536 171.414 C 485.694 167.077, 481.538 165.456, 464.784 162.152 C 455.828 160.386, 405.636 150.404, 353.248 139.970 C 300.859 129.537, 257.434 121.010, 256.748 121.022 C 256.061 121.034, 253.681 121.870, 251.458 122.880" stroke="none" fill="black" fill-rule="evenodd"/>
</svg>